<?xml version="1.0" encoding="iso-8859-1"?>
<!-- Uploaded to: SVG Repo, www.svgrepo.com, Generator: SVG Repo Mixer Tools -->
<svg version="1.1" id="Layer_1" xmlns="http://www.w3.org/2000/svg" xmlns:xlink="http://www.w3.org/1999/xlink" 
	 viewBox="0 0 512 512" xml:space="preserve">
<path style="fill:#FFFFFF;" d="M372.815,508H94.317c-15.735-0.04-28.478-12.783-28.518-28.518V32.509
	c0.04-15.735,12.783-28.478,28.518-28.518h323.375c15.727,0.056,28.462,12.791,28.502,28.518v402.313"/>
<path style="fill:#8E8E8E;" d="M372.815,512H94.317c-17.943-0.024-32.485-14.567-32.509-32.509V32.509
	C61.823,14.567,76.366,0.024,94.317,0h323.375c17.943,0.024,32.477,14.567,32.501,32.509v402.313h-7.999V32.509
	c-0.024-13.527-10.983-24.494-24.51-24.51H94.317c-13.535,0.016-24.502,10.975-24.518,24.51v446.973
	c0.016,13.527,10.983,24.494,24.51,24.51h278.514V512H372.815z"/>
<path style="fill:#333333;" d="M372.815,450.245v61.707l77.13-77.13h-61.707C379.734,434.846,372.847,441.742,372.815,450.245z"/>
<rect x="182.038" y="157.844" style="fill:#E21B1B;" width="24.59" height="67.251"/>
<g>
	<rect x="141.065" y="185.346" style="fill:#6B6B6B;" width="24.59" height="39.757"/>
	<rect x="223.027" y="120.471" style="fill:#6B6B6B;" width="24.59" height="104.632"/>
</g>
<rect x="263.975" y="53.22" style="fill:#E21B1B;" width="24.59" height="171.883"/>
<rect x="305.012" y="87.897" style="fill:#6B6B6B;" width="24.59" height="137.189"/>
<rect x="345.969" y="143.133" style="fill:#E21B1B;" width="24.59" height="82.202"/>
<path d="M248.201,280.002c-49.316,0-89.297,39.981-89.297,89.297s39.981,89.297,89.297,89.297c49.292,0,89.265-39.949,89.297-89.241
	h-89.297V280.002z"/>
<path style="fill:#E21B1B;" d="M326.578,290.977l-63.195,63.195h89.321V354.1C352.736,330.422,343.337,307.712,326.578,290.977z"/>
<path style="fill:#DBDBDB;" d="M263.399,264.803v89.369l63.195-63.195C309.86,274.179,287.11,264.755,263.399,264.803z"/>
</svg>